M48
;GenerationSoftware,Autodesk,EAGLE,9.2.2*%
;CreationDate,2019-01-20T17:40:16Z*%
FMAT,2
ICI,OFF
METRIC,TZ,000.000
T2C0.350
T1C1.016
%
G90
M71
T1
X28770Y7540
X31310Y7540
X2590Y2140
X2590Y4680
X2590Y7220
X2590Y9760
X8720Y7540
X11260Y7540
X8790Y3990
X11330Y3990
X28740Y3990
X31280Y3990
X25460Y9860
X25460Y7320
X25460Y4780
X25460Y2240
X38170Y8950
X35630Y8950
X38170Y2950
X35630Y2950
T2
X13868Y4267
X9601Y9754
X16307Y4877
X16916Y7315
X18288Y8687
M30