G04 EAGLE Gerber RS-274X export*
G75*
%MOMM*%
%FSLAX34Y34*%
%LPD*%
%INBottom Copper*%
%IPPOS*%
%AMOC8*
5,1,8,0,0,1.08239X$1,22.5*%
G01*
%ADD10C,1.524000*%
%ADD11C,0.152400*%
%ADD12C,0.756400*%


D10*
X287700Y67780D02*
X287700Y83020D01*
X313100Y83020D02*
X313100Y67780D01*
X33520Y21400D02*
X18280Y21400D01*
X18280Y46800D02*
X33520Y46800D01*
X33520Y72200D02*
X18280Y72200D01*
X18280Y97600D02*
X33520Y97600D01*
X87200Y83020D02*
X87200Y67780D01*
X112600Y67780D02*
X112600Y83020D01*
X87900Y47520D02*
X87900Y32280D01*
X113300Y32280D02*
X113300Y47520D01*
X287400Y47520D02*
X287400Y32280D01*
X312800Y32280D02*
X312800Y47520D01*
X262220Y98600D02*
X246980Y98600D01*
X246980Y73200D02*
X262220Y73200D01*
X262220Y47800D02*
X246980Y47800D01*
X246980Y22400D02*
X262220Y22400D01*
X381700Y81880D02*
X381700Y97120D01*
X356300Y97120D02*
X356300Y81880D01*
X381700Y37120D02*
X381700Y21880D01*
X356300Y21880D02*
X356300Y37120D01*
D11*
X138684Y42672D02*
X138684Y71628D01*
X117348Y92964D01*
X105156Y92964D01*
X88392Y76200D01*
X87200Y75400D01*
D12*
X138684Y42672D03*
D11*
X233172Y21336D02*
X25908Y21336D01*
X233172Y21336D02*
X242316Y12192D01*
X338328Y12192D01*
X355092Y28956D01*
X25908Y21336D02*
X25900Y21400D01*
X355092Y28956D02*
X356300Y29500D01*
X96012Y97536D02*
X76200Y97536D01*
X25908Y47244D01*
X25900Y46800D01*
X377952Y30480D02*
X381000Y30480D01*
X377952Y30480D02*
X361188Y47244D01*
X342900Y47244D01*
X316992Y21336D01*
X277368Y21336D01*
X262128Y36576D01*
X175260Y36576D01*
X163068Y48768D01*
X381000Y30480D02*
X381700Y29500D01*
D12*
X96012Y97536D03*
X163068Y48768D03*
D11*
X213360Y73152D02*
X254508Y73152D01*
X213360Y73152D02*
X207264Y67056D01*
X147828Y67056D01*
X111252Y103632D01*
X30480Y103632D01*
X25908Y99060D01*
X254508Y73152D02*
X254600Y73200D01*
X25900Y97600D02*
X25908Y99060D01*
X169164Y73152D02*
X208788Y73152D01*
X219456Y83820D01*
X278892Y83820D01*
X286512Y76200D01*
X287700Y75400D01*
D12*
X169164Y73152D03*
D11*
X182880Y86868D02*
X277368Y86868D01*
X283464Y92964D01*
X295656Y92964D01*
X312420Y76200D01*
X313100Y75400D01*
D12*
X182880Y86868D03*
M02*
