G04 EAGLE Gerber RS-274X export*
G75*
%MOMM*%
%FSLAX34Y34*%
%LPD*%
%INSilkscreen Top*%
%IPPOS*%
%AMOC8*
5,1,8,0,0,1.08239X$1,22.5*%
G01*
%ADD10C,0.101600*%
%ADD11C,0.152400*%
%ADD12C,0.762000*%
%ADD13R,0.762000X0.508000*%
%ADD14R,0.762000X1.016000*%
%ADD15C,0.203200*%


D10*
X53754Y104948D02*
X55052Y108194D01*
X55051Y108194D02*
X55084Y108269D01*
X55120Y108343D01*
X55159Y108415D01*
X55202Y108485D01*
X55248Y108552D01*
X55298Y108618D01*
X55350Y108680D01*
X55406Y108741D01*
X55464Y108798D01*
X55525Y108853D01*
X55589Y108904D01*
X55655Y108952D01*
X55724Y108997D01*
X55794Y109039D01*
X55867Y109077D01*
X55941Y109112D01*
X56017Y109143D01*
X56094Y109170D01*
X56173Y109193D01*
X56252Y109213D01*
X56333Y109228D01*
X56414Y109240D01*
X56496Y109248D01*
X56577Y109252D01*
X56659Y109251D01*
X56741Y109247D01*
X56823Y109239D01*
X56904Y109227D01*
X56984Y109211D01*
X57064Y109191D01*
X57142Y109167D01*
X57219Y109139D01*
X57295Y109108D01*
X57369Y109073D01*
X57441Y109035D01*
X57512Y108993D01*
X57580Y108947D01*
X57646Y108899D01*
X57709Y108847D01*
X57770Y108792D01*
X57828Y108734D01*
X57884Y108674D01*
X57936Y108611D01*
X57985Y108545D01*
X58031Y108477D01*
X58073Y108407D01*
X58113Y108335D01*
X58148Y108261D01*
X58180Y108186D01*
X58208Y108109D01*
X58232Y108031D01*
X58253Y107951D01*
X58270Y107871D01*
X58282Y107790D01*
X58291Y107709D01*
X58296Y107627D01*
X58297Y107545D01*
X58293Y107368D01*
X58284Y107191D01*
X58270Y107014D01*
X58253Y106837D01*
X58231Y106662D01*
X58206Y106486D01*
X58175Y106312D01*
X58141Y106138D01*
X58103Y105965D01*
X58060Y105793D01*
X58013Y105622D01*
X57963Y105452D01*
X57908Y105283D01*
X57849Y105116D01*
X57786Y104951D01*
X57719Y104786D01*
X57648Y104624D01*
X53754Y104948D02*
X53721Y104873D01*
X53685Y104799D01*
X53646Y104727D01*
X53603Y104657D01*
X53557Y104590D01*
X53507Y104524D01*
X53455Y104462D01*
X53399Y104401D01*
X53341Y104344D01*
X53280Y104289D01*
X53216Y104238D01*
X53150Y104190D01*
X53081Y104145D01*
X53011Y104103D01*
X52938Y104065D01*
X52864Y104030D01*
X52788Y103999D01*
X52711Y103972D01*
X52632Y103949D01*
X52553Y103929D01*
X52472Y103914D01*
X52391Y103902D01*
X52309Y103894D01*
X52228Y103890D01*
X52146Y103891D01*
X52064Y103895D01*
X51982Y103903D01*
X51901Y103915D01*
X51821Y103931D01*
X51741Y103951D01*
X51663Y103975D01*
X51586Y104003D01*
X51510Y104034D01*
X51436Y104069D01*
X51364Y104107D01*
X51293Y104149D01*
X51225Y104195D01*
X51159Y104243D01*
X51096Y104295D01*
X51035Y104350D01*
X50977Y104408D01*
X50921Y104468D01*
X50869Y104531D01*
X50820Y104597D01*
X50774Y104665D01*
X50732Y104735D01*
X50692Y104807D01*
X50657Y104881D01*
X50625Y104956D01*
X50597Y105033D01*
X50573Y105111D01*
X50552Y105191D01*
X50535Y105271D01*
X50523Y105352D01*
X50514Y105433D01*
X50509Y105515D01*
X50508Y105597D01*
X50515Y105857D01*
X50528Y106117D01*
X50547Y106377D01*
X50572Y106636D01*
X50604Y106895D01*
X50641Y107152D01*
X50685Y107409D01*
X50734Y107665D01*
X50790Y107919D01*
X50851Y108172D01*
X50919Y108423D01*
X50993Y108673D01*
X51072Y108921D01*
X51157Y109167D01*
X58297Y100229D02*
X58297Y96334D01*
X62192Y98931D02*
X52455Y98931D01*
X52455Y98930D02*
X52368Y98928D01*
X52280Y98922D01*
X52194Y98912D01*
X52107Y98899D01*
X52022Y98881D01*
X51937Y98860D01*
X51853Y98835D01*
X51771Y98806D01*
X51690Y98773D01*
X51610Y98737D01*
X51532Y98698D01*
X51456Y98654D01*
X51382Y98608D01*
X51311Y98558D01*
X51241Y98505D01*
X51174Y98449D01*
X51110Y98390D01*
X51048Y98328D01*
X50989Y98264D01*
X50933Y98197D01*
X50880Y98127D01*
X50830Y98056D01*
X50784Y97982D01*
X50740Y97906D01*
X50701Y97828D01*
X50665Y97748D01*
X50632Y97667D01*
X50603Y97585D01*
X50578Y97501D01*
X50557Y97416D01*
X50539Y97331D01*
X50526Y97244D01*
X50516Y97158D01*
X50510Y97070D01*
X50508Y96983D01*
X50508Y96334D01*
X53104Y92022D02*
X55701Y92022D01*
X55802Y92020D01*
X55902Y92014D01*
X56002Y92004D01*
X56102Y91991D01*
X56201Y91973D01*
X56300Y91952D01*
X56397Y91927D01*
X56494Y91898D01*
X56589Y91865D01*
X56683Y91829D01*
X56775Y91789D01*
X56866Y91746D01*
X56955Y91699D01*
X57042Y91649D01*
X57128Y91595D01*
X57211Y91538D01*
X57291Y91478D01*
X57370Y91415D01*
X57446Y91348D01*
X57519Y91279D01*
X57589Y91207D01*
X57657Y91133D01*
X57722Y91056D01*
X57783Y90976D01*
X57842Y90894D01*
X57897Y90810D01*
X57949Y90724D01*
X57998Y90636D01*
X58043Y90546D01*
X58085Y90454D01*
X58123Y90361D01*
X58157Y90266D01*
X58188Y90171D01*
X58215Y90074D01*
X58238Y89976D01*
X58258Y89877D01*
X58273Y89777D01*
X58285Y89677D01*
X58293Y89577D01*
X58297Y89476D01*
X58297Y89376D01*
X58293Y89275D01*
X58285Y89175D01*
X58273Y89075D01*
X58258Y88975D01*
X58238Y88876D01*
X58215Y88778D01*
X58188Y88681D01*
X58157Y88586D01*
X58123Y88491D01*
X58085Y88398D01*
X58043Y88306D01*
X57998Y88216D01*
X57949Y88128D01*
X57897Y88042D01*
X57842Y87958D01*
X57783Y87876D01*
X57722Y87796D01*
X57657Y87719D01*
X57589Y87645D01*
X57519Y87573D01*
X57446Y87504D01*
X57370Y87437D01*
X57291Y87374D01*
X57211Y87314D01*
X57128Y87257D01*
X57042Y87203D01*
X56955Y87153D01*
X56866Y87106D01*
X56775Y87063D01*
X56683Y87023D01*
X56589Y86987D01*
X56494Y86954D01*
X56397Y86925D01*
X56300Y86900D01*
X56201Y86879D01*
X56102Y86861D01*
X56002Y86848D01*
X55902Y86838D01*
X55802Y86832D01*
X55701Y86830D01*
X53104Y86830D01*
X53003Y86832D01*
X52903Y86838D01*
X52803Y86848D01*
X52703Y86861D01*
X52604Y86879D01*
X52505Y86900D01*
X52408Y86925D01*
X52311Y86954D01*
X52216Y86987D01*
X52122Y87023D01*
X52030Y87063D01*
X51939Y87106D01*
X51850Y87153D01*
X51763Y87203D01*
X51677Y87257D01*
X51594Y87314D01*
X51514Y87374D01*
X51435Y87437D01*
X51359Y87504D01*
X51286Y87573D01*
X51216Y87645D01*
X51148Y87719D01*
X51083Y87796D01*
X51022Y87876D01*
X50963Y87958D01*
X50908Y88042D01*
X50856Y88128D01*
X50807Y88216D01*
X50762Y88306D01*
X50720Y88398D01*
X50682Y88491D01*
X50648Y88586D01*
X50617Y88681D01*
X50590Y88778D01*
X50567Y88876D01*
X50547Y88975D01*
X50532Y89075D01*
X50520Y89175D01*
X50512Y89275D01*
X50508Y89376D01*
X50508Y89476D01*
X50512Y89577D01*
X50520Y89677D01*
X50532Y89777D01*
X50547Y89877D01*
X50567Y89976D01*
X50590Y90074D01*
X50617Y90171D01*
X50648Y90266D01*
X50682Y90361D01*
X50720Y90454D01*
X50762Y90546D01*
X50807Y90636D01*
X50856Y90724D01*
X50908Y90810D01*
X50963Y90894D01*
X51022Y90976D01*
X51083Y91056D01*
X51148Y91133D01*
X51216Y91207D01*
X51286Y91279D01*
X51359Y91348D01*
X51435Y91415D01*
X51514Y91478D01*
X51594Y91538D01*
X51677Y91595D01*
X51763Y91649D01*
X51850Y91699D01*
X51939Y91746D01*
X52030Y91789D01*
X52122Y91829D01*
X52216Y91865D01*
X52311Y91898D01*
X52408Y91927D01*
X52505Y91952D01*
X52604Y91973D01*
X52703Y91991D01*
X52803Y92004D01*
X52903Y92014D01*
X53003Y92020D01*
X53104Y92022D01*
X50508Y81735D02*
X58297Y81735D01*
X58297Y78490D01*
X58295Y78403D01*
X58289Y78315D01*
X58279Y78229D01*
X58266Y78142D01*
X58248Y78057D01*
X58227Y77972D01*
X58202Y77888D01*
X58173Y77806D01*
X58140Y77725D01*
X58104Y77645D01*
X58065Y77567D01*
X58021Y77491D01*
X57975Y77417D01*
X57925Y77346D01*
X57872Y77276D01*
X57816Y77209D01*
X57757Y77145D01*
X57696Y77083D01*
X57631Y77024D01*
X57564Y76968D01*
X57494Y76915D01*
X57423Y76865D01*
X57349Y76819D01*
X57273Y76776D01*
X57195Y76736D01*
X57115Y76700D01*
X57034Y76667D01*
X56952Y76638D01*
X56868Y76613D01*
X56783Y76592D01*
X56698Y76574D01*
X56611Y76561D01*
X56525Y76551D01*
X56437Y76545D01*
X56350Y76543D01*
X50508Y76543D01*
X50508Y69501D02*
X50508Y66256D01*
X50508Y69501D02*
X50510Y69588D01*
X50516Y69676D01*
X50526Y69762D01*
X50539Y69849D01*
X50557Y69934D01*
X50578Y70019D01*
X50603Y70103D01*
X50632Y70185D01*
X50665Y70266D01*
X50701Y70346D01*
X50740Y70424D01*
X50784Y70500D01*
X50830Y70574D01*
X50880Y70645D01*
X50933Y70715D01*
X50989Y70782D01*
X51048Y70846D01*
X51110Y70908D01*
X51174Y70967D01*
X51241Y71023D01*
X51311Y71076D01*
X51382Y71126D01*
X51456Y71172D01*
X51532Y71216D01*
X51610Y71255D01*
X51690Y71291D01*
X51771Y71324D01*
X51853Y71353D01*
X51937Y71378D01*
X52022Y71399D01*
X52107Y71417D01*
X52194Y71430D01*
X52280Y71440D01*
X52368Y71446D01*
X52455Y71448D01*
X55701Y71448D01*
X55802Y71446D01*
X55902Y71440D01*
X56002Y71430D01*
X56102Y71417D01*
X56201Y71399D01*
X56300Y71378D01*
X56397Y71353D01*
X56494Y71324D01*
X56589Y71291D01*
X56683Y71255D01*
X56775Y71215D01*
X56866Y71172D01*
X56955Y71125D01*
X57042Y71075D01*
X57128Y71021D01*
X57211Y70964D01*
X57291Y70904D01*
X57370Y70841D01*
X57446Y70774D01*
X57519Y70705D01*
X57589Y70633D01*
X57657Y70559D01*
X57722Y70482D01*
X57783Y70402D01*
X57842Y70320D01*
X57897Y70236D01*
X57949Y70150D01*
X57998Y70062D01*
X58043Y69972D01*
X58085Y69880D01*
X58123Y69787D01*
X58157Y69692D01*
X58188Y69597D01*
X58215Y69500D01*
X58238Y69402D01*
X58258Y69303D01*
X58273Y69203D01*
X58285Y69103D01*
X58293Y69003D01*
X58297Y68902D01*
X58297Y68802D01*
X58293Y68701D01*
X58285Y68601D01*
X58273Y68501D01*
X58258Y68401D01*
X58238Y68302D01*
X58215Y68204D01*
X58188Y68107D01*
X58157Y68012D01*
X58123Y67917D01*
X58085Y67824D01*
X58043Y67732D01*
X57998Y67642D01*
X57949Y67554D01*
X57897Y67468D01*
X57842Y67384D01*
X57783Y67302D01*
X57722Y67222D01*
X57657Y67145D01*
X57589Y67071D01*
X57519Y66999D01*
X57446Y66930D01*
X57370Y66863D01*
X57291Y66800D01*
X57211Y66740D01*
X57128Y66683D01*
X57042Y66629D01*
X56955Y66579D01*
X56866Y66532D01*
X56775Y66489D01*
X56683Y66449D01*
X56589Y66413D01*
X56494Y66380D01*
X56397Y66351D01*
X56300Y66326D01*
X56201Y66305D01*
X56102Y66287D01*
X56002Y66274D01*
X55902Y66264D01*
X55802Y66258D01*
X55701Y66256D01*
X54403Y66256D01*
X54403Y71448D01*
X58297Y55827D02*
X50508Y53231D01*
X58297Y50635D01*
X58297Y46373D02*
X50508Y46373D01*
X61543Y46698D02*
X62192Y46698D01*
X62192Y46049D01*
X61543Y46049D01*
X61543Y46698D01*
X62192Y41581D02*
X52455Y41581D01*
X52368Y41579D01*
X52280Y41573D01*
X52194Y41563D01*
X52107Y41550D01*
X52022Y41532D01*
X51937Y41511D01*
X51853Y41486D01*
X51771Y41457D01*
X51690Y41424D01*
X51610Y41388D01*
X51532Y41349D01*
X51456Y41305D01*
X51382Y41259D01*
X51311Y41209D01*
X51241Y41156D01*
X51174Y41100D01*
X51110Y41041D01*
X51048Y40979D01*
X50989Y40915D01*
X50933Y40848D01*
X50880Y40778D01*
X50830Y40707D01*
X50784Y40633D01*
X50740Y40557D01*
X50701Y40479D01*
X50665Y40399D01*
X50632Y40318D01*
X50603Y40236D01*
X50578Y40152D01*
X50557Y40067D01*
X50539Y39982D01*
X50526Y39895D01*
X50516Y39809D01*
X50510Y39721D01*
X50508Y39634D01*
X52455Y35485D02*
X62192Y35485D01*
X52455Y35485D02*
X52368Y35483D01*
X52280Y35477D01*
X52194Y35467D01*
X52107Y35454D01*
X52022Y35436D01*
X51937Y35415D01*
X51853Y35390D01*
X51771Y35361D01*
X51690Y35328D01*
X51610Y35292D01*
X51532Y35253D01*
X51456Y35209D01*
X51382Y35163D01*
X51311Y35113D01*
X51241Y35060D01*
X51174Y35004D01*
X51110Y34945D01*
X51048Y34883D01*
X50989Y34819D01*
X50933Y34752D01*
X50880Y34682D01*
X50830Y34611D01*
X50784Y34537D01*
X50740Y34461D01*
X50701Y34383D01*
X50665Y34303D01*
X50632Y34222D01*
X50603Y34140D01*
X50578Y34056D01*
X50557Y33971D01*
X50539Y33886D01*
X50526Y33799D01*
X50516Y33713D01*
X50510Y33625D01*
X50508Y33538D01*
X55052Y27326D02*
X55052Y24405D01*
X55052Y27326D02*
X55050Y27420D01*
X55044Y27514D01*
X55035Y27607D01*
X55021Y27700D01*
X55004Y27792D01*
X54982Y27884D01*
X54958Y27974D01*
X54929Y28064D01*
X54897Y28152D01*
X54861Y28239D01*
X54821Y28324D01*
X54778Y28407D01*
X54732Y28489D01*
X54682Y28569D01*
X54629Y28646D01*
X54573Y28721D01*
X54514Y28794D01*
X54452Y28865D01*
X54387Y28933D01*
X54319Y28998D01*
X54248Y29060D01*
X54175Y29119D01*
X54100Y29175D01*
X54023Y29228D01*
X53943Y29278D01*
X53861Y29324D01*
X53778Y29367D01*
X53693Y29407D01*
X53606Y29443D01*
X53518Y29475D01*
X53428Y29504D01*
X53338Y29528D01*
X53246Y29550D01*
X53154Y29567D01*
X53061Y29581D01*
X52968Y29590D01*
X52874Y29596D01*
X52780Y29598D01*
X52686Y29596D01*
X52592Y29590D01*
X52499Y29581D01*
X52406Y29567D01*
X52314Y29550D01*
X52222Y29528D01*
X52132Y29504D01*
X52042Y29475D01*
X51954Y29443D01*
X51867Y29407D01*
X51782Y29367D01*
X51699Y29324D01*
X51617Y29278D01*
X51537Y29228D01*
X51460Y29175D01*
X51385Y29119D01*
X51312Y29060D01*
X51241Y28998D01*
X51173Y28933D01*
X51108Y28865D01*
X51046Y28794D01*
X50987Y28721D01*
X50931Y28646D01*
X50878Y28569D01*
X50828Y28489D01*
X50782Y28407D01*
X50739Y28324D01*
X50699Y28239D01*
X50663Y28152D01*
X50631Y28064D01*
X50602Y27974D01*
X50578Y27884D01*
X50556Y27792D01*
X50539Y27700D01*
X50525Y27607D01*
X50516Y27514D01*
X50510Y27420D01*
X50508Y27326D01*
X50508Y24405D01*
X56350Y24405D01*
X56437Y24407D01*
X56525Y24413D01*
X56611Y24423D01*
X56698Y24436D01*
X56783Y24454D01*
X56868Y24475D01*
X56952Y24500D01*
X57034Y24529D01*
X57115Y24562D01*
X57195Y24598D01*
X57273Y24637D01*
X57349Y24681D01*
X57423Y24727D01*
X57494Y24777D01*
X57564Y24830D01*
X57631Y24886D01*
X57696Y24945D01*
X57757Y25007D01*
X57816Y25071D01*
X57872Y25138D01*
X57925Y25208D01*
X57975Y25279D01*
X58021Y25353D01*
X58065Y25429D01*
X58104Y25507D01*
X58140Y25587D01*
X58173Y25668D01*
X58202Y25750D01*
X58227Y25834D01*
X58248Y25919D01*
X58266Y26004D01*
X58279Y26091D01*
X58289Y26178D01*
X58295Y26265D01*
X58297Y26352D01*
X58297Y28948D01*
X50508Y17363D02*
X50508Y14118D01*
X50508Y17363D02*
X50510Y17450D01*
X50516Y17538D01*
X50526Y17624D01*
X50539Y17711D01*
X50557Y17796D01*
X50578Y17881D01*
X50603Y17965D01*
X50632Y18047D01*
X50665Y18128D01*
X50701Y18208D01*
X50740Y18286D01*
X50784Y18362D01*
X50830Y18436D01*
X50880Y18507D01*
X50933Y18577D01*
X50989Y18644D01*
X51048Y18708D01*
X51110Y18770D01*
X51174Y18829D01*
X51241Y18885D01*
X51311Y18938D01*
X51382Y18988D01*
X51456Y19034D01*
X51532Y19078D01*
X51610Y19117D01*
X51690Y19153D01*
X51771Y19186D01*
X51853Y19215D01*
X51937Y19240D01*
X52022Y19261D01*
X52107Y19279D01*
X52194Y19292D01*
X52280Y19302D01*
X52368Y19308D01*
X52455Y19310D01*
X52455Y19311D02*
X56350Y19311D01*
X56350Y19310D02*
X56437Y19308D01*
X56525Y19302D01*
X56611Y19292D01*
X56698Y19279D01*
X56783Y19261D01*
X56868Y19240D01*
X56952Y19215D01*
X57034Y19186D01*
X57115Y19153D01*
X57195Y19117D01*
X57273Y19078D01*
X57349Y19034D01*
X57423Y18988D01*
X57494Y18938D01*
X57564Y18885D01*
X57631Y18829D01*
X57695Y18770D01*
X57757Y18708D01*
X57816Y18644D01*
X57872Y18577D01*
X57925Y18507D01*
X57975Y18436D01*
X58021Y18362D01*
X58065Y18286D01*
X58104Y18208D01*
X58140Y18128D01*
X58173Y18047D01*
X58202Y17965D01*
X58227Y17881D01*
X58248Y17796D01*
X58266Y17711D01*
X58279Y17624D01*
X58289Y17538D01*
X58295Y17450D01*
X58297Y17363D01*
X58297Y14118D01*
X48561Y14118D01*
X48474Y14120D01*
X48386Y14126D01*
X48300Y14136D01*
X48213Y14149D01*
X48128Y14167D01*
X48043Y14188D01*
X47959Y14213D01*
X47877Y14242D01*
X47796Y14275D01*
X47716Y14311D01*
X47638Y14350D01*
X47562Y14394D01*
X47488Y14440D01*
X47417Y14490D01*
X47347Y14543D01*
X47280Y14599D01*
X47216Y14658D01*
X47154Y14720D01*
X47095Y14784D01*
X47039Y14851D01*
X46986Y14921D01*
X46936Y14992D01*
X46890Y15066D01*
X46846Y15142D01*
X46807Y15220D01*
X46771Y15300D01*
X46738Y15381D01*
X46709Y15463D01*
X46684Y15547D01*
X46663Y15632D01*
X46645Y15717D01*
X46632Y15804D01*
X46622Y15890D01*
X46616Y15978D01*
X46614Y16065D01*
X46613Y16065D02*
X46613Y18661D01*
X50508Y7017D02*
X50508Y3772D01*
X50508Y7017D02*
X50510Y7104D01*
X50516Y7192D01*
X50526Y7278D01*
X50539Y7365D01*
X50557Y7450D01*
X50578Y7535D01*
X50603Y7619D01*
X50632Y7701D01*
X50665Y7782D01*
X50701Y7862D01*
X50740Y7940D01*
X50784Y8016D01*
X50830Y8090D01*
X50880Y8161D01*
X50933Y8231D01*
X50989Y8298D01*
X51048Y8362D01*
X51110Y8424D01*
X51174Y8483D01*
X51241Y8539D01*
X51311Y8592D01*
X51382Y8642D01*
X51456Y8688D01*
X51532Y8732D01*
X51610Y8771D01*
X51690Y8807D01*
X51771Y8840D01*
X51853Y8869D01*
X51937Y8894D01*
X52022Y8915D01*
X52107Y8933D01*
X52194Y8946D01*
X52280Y8956D01*
X52368Y8962D01*
X52455Y8964D01*
X52455Y8965D02*
X55701Y8965D01*
X55701Y8964D02*
X55802Y8962D01*
X55902Y8956D01*
X56002Y8946D01*
X56102Y8933D01*
X56201Y8915D01*
X56300Y8894D01*
X56397Y8869D01*
X56494Y8840D01*
X56589Y8807D01*
X56683Y8771D01*
X56775Y8731D01*
X56866Y8688D01*
X56955Y8641D01*
X57042Y8591D01*
X57128Y8537D01*
X57211Y8480D01*
X57291Y8420D01*
X57370Y8357D01*
X57446Y8290D01*
X57519Y8221D01*
X57589Y8149D01*
X57657Y8075D01*
X57722Y7998D01*
X57783Y7918D01*
X57842Y7836D01*
X57897Y7752D01*
X57949Y7666D01*
X57998Y7578D01*
X58043Y7488D01*
X58085Y7396D01*
X58123Y7303D01*
X58157Y7208D01*
X58188Y7113D01*
X58215Y7016D01*
X58238Y6918D01*
X58258Y6819D01*
X58273Y6719D01*
X58285Y6619D01*
X58293Y6519D01*
X58297Y6418D01*
X58297Y6318D01*
X58293Y6217D01*
X58285Y6117D01*
X58273Y6017D01*
X58258Y5917D01*
X58238Y5818D01*
X58215Y5720D01*
X58188Y5623D01*
X58157Y5528D01*
X58123Y5433D01*
X58085Y5340D01*
X58043Y5248D01*
X57998Y5158D01*
X57949Y5070D01*
X57897Y4984D01*
X57842Y4900D01*
X57783Y4818D01*
X57722Y4738D01*
X57657Y4661D01*
X57589Y4587D01*
X57519Y4515D01*
X57446Y4446D01*
X57370Y4379D01*
X57291Y4316D01*
X57211Y4256D01*
X57128Y4199D01*
X57042Y4145D01*
X56955Y4095D01*
X56866Y4048D01*
X56775Y4005D01*
X56683Y3965D01*
X56589Y3929D01*
X56494Y3896D01*
X56397Y3867D01*
X56300Y3842D01*
X56201Y3821D01*
X56102Y3803D01*
X56002Y3790D01*
X55902Y3780D01*
X55802Y3774D01*
X55701Y3772D01*
X54403Y3772D01*
X54403Y8965D01*
X226350Y79493D02*
X226580Y79490D01*
X226810Y79482D01*
X227039Y79468D01*
X227268Y79449D01*
X227497Y79424D01*
X227725Y79394D01*
X227952Y79359D01*
X228178Y79318D01*
X228403Y79272D01*
X228627Y79220D01*
X228850Y79163D01*
X229071Y79101D01*
X229291Y79033D01*
X229509Y78960D01*
X229725Y78882D01*
X229939Y78799D01*
X230152Y78711D01*
X230362Y78618D01*
X230569Y78519D01*
X230569Y78518D02*
X230659Y78485D01*
X230748Y78449D01*
X230836Y78409D01*
X230921Y78365D01*
X231005Y78318D01*
X231087Y78268D01*
X231167Y78214D01*
X231244Y78158D01*
X231320Y78098D01*
X231393Y78035D01*
X231463Y77970D01*
X231531Y77901D01*
X231595Y77830D01*
X231657Y77757D01*
X231716Y77681D01*
X231772Y77603D01*
X231825Y77522D01*
X231874Y77440D01*
X231920Y77356D01*
X231963Y77269D01*
X232002Y77182D01*
X232038Y77092D01*
X232070Y77002D01*
X232098Y76910D01*
X232123Y76817D01*
X232144Y76723D01*
X232161Y76629D01*
X232175Y76534D01*
X232184Y76438D01*
X232190Y76342D01*
X232192Y76246D01*
X232190Y76150D01*
X232184Y76054D01*
X232175Y75958D01*
X232161Y75863D01*
X232144Y75769D01*
X232123Y75675D01*
X232098Y75582D01*
X232070Y75490D01*
X232038Y75400D01*
X232002Y75310D01*
X231963Y75223D01*
X231920Y75136D01*
X231874Y75052D01*
X231825Y74970D01*
X231772Y74889D01*
X231716Y74811D01*
X231657Y74735D01*
X231595Y74662D01*
X231531Y74591D01*
X231463Y74522D01*
X231393Y74457D01*
X231320Y74394D01*
X231245Y74334D01*
X231167Y74278D01*
X231087Y74224D01*
X231005Y74174D01*
X230921Y74127D01*
X230836Y74084D01*
X230748Y74043D01*
X230659Y74007D01*
X230569Y73974D01*
X230569Y73975D02*
X230361Y73876D01*
X230151Y73783D01*
X229939Y73695D01*
X229725Y73612D01*
X229508Y73534D01*
X229290Y73461D01*
X229071Y73393D01*
X228849Y73331D01*
X228627Y73274D01*
X228403Y73222D01*
X228178Y73176D01*
X227952Y73135D01*
X227724Y73100D01*
X227497Y73070D01*
X227268Y73045D01*
X227039Y73026D01*
X226810Y73012D01*
X226580Y73004D01*
X226350Y73001D01*
X226350Y79492D02*
X226120Y79489D01*
X225890Y79481D01*
X225661Y79467D01*
X225432Y79448D01*
X225203Y79423D01*
X224975Y79393D01*
X224748Y79358D01*
X224522Y79317D01*
X224297Y79271D01*
X224073Y79219D01*
X223850Y79162D01*
X223629Y79100D01*
X223409Y79032D01*
X223191Y78959D01*
X222975Y78881D01*
X222761Y78798D01*
X222549Y78710D01*
X222338Y78617D01*
X222131Y78518D01*
X222041Y78485D01*
X221952Y78449D01*
X221864Y78408D01*
X221779Y78365D01*
X221695Y78318D01*
X221613Y78268D01*
X221533Y78214D01*
X221456Y78158D01*
X221380Y78098D01*
X221307Y78035D01*
X221237Y77970D01*
X221169Y77901D01*
X221105Y77830D01*
X221043Y77757D01*
X220984Y77681D01*
X220928Y77603D01*
X220875Y77522D01*
X220826Y77440D01*
X220780Y77356D01*
X220737Y77269D01*
X220698Y77182D01*
X220662Y77092D01*
X220630Y77002D01*
X220602Y76910D01*
X220577Y76817D01*
X220556Y76723D01*
X220539Y76629D01*
X220525Y76534D01*
X220516Y76438D01*
X220510Y76342D01*
X220508Y76246D01*
X222131Y73975D02*
X222338Y73876D01*
X222549Y73783D01*
X222761Y73695D01*
X222975Y73612D01*
X223191Y73534D01*
X223409Y73461D01*
X223629Y73393D01*
X223850Y73331D01*
X224073Y73274D01*
X224297Y73222D01*
X224522Y73176D01*
X224748Y73135D01*
X224975Y73100D01*
X225203Y73070D01*
X225432Y73045D01*
X225661Y73026D01*
X225890Y73012D01*
X226120Y73004D01*
X226350Y73001D01*
X222131Y73974D02*
X222041Y74007D01*
X221952Y74043D01*
X221864Y74084D01*
X221779Y74127D01*
X221695Y74174D01*
X221613Y74224D01*
X221533Y74278D01*
X221455Y74334D01*
X221380Y74394D01*
X221307Y74457D01*
X221237Y74522D01*
X221169Y74591D01*
X221105Y74662D01*
X221043Y74735D01*
X220984Y74811D01*
X220928Y74889D01*
X220875Y74970D01*
X220826Y75052D01*
X220780Y75136D01*
X220737Y75223D01*
X220698Y75310D01*
X220662Y75400D01*
X220630Y75490D01*
X220602Y75582D01*
X220577Y75675D01*
X220556Y75769D01*
X220539Y75863D01*
X220525Y75958D01*
X220516Y76054D01*
X220510Y76150D01*
X220508Y76246D01*
X223104Y78843D02*
X229596Y73650D01*
X229596Y68062D02*
X232192Y64817D01*
X220508Y64817D01*
X220508Y68062D02*
X220508Y61571D01*
X229596Y56632D02*
X232192Y53387D01*
X220508Y53387D01*
X220508Y56632D02*
X220508Y50141D01*
X225701Y42606D02*
X225701Y38711D01*
X225701Y42606D02*
X225703Y42705D01*
X225709Y42805D01*
X225718Y42904D01*
X225731Y43002D01*
X225748Y43100D01*
X225769Y43198D01*
X225794Y43294D01*
X225822Y43389D01*
X225854Y43483D01*
X225889Y43576D01*
X225928Y43668D01*
X225971Y43758D01*
X226016Y43846D01*
X226066Y43933D01*
X226118Y44017D01*
X226174Y44100D01*
X226232Y44180D01*
X226294Y44258D01*
X226359Y44333D01*
X226427Y44406D01*
X226497Y44476D01*
X226570Y44544D01*
X226645Y44609D01*
X226723Y44671D01*
X226803Y44729D01*
X226886Y44785D01*
X226970Y44837D01*
X227057Y44887D01*
X227145Y44932D01*
X227235Y44975D01*
X227327Y45014D01*
X227420Y45049D01*
X227514Y45081D01*
X227609Y45109D01*
X227705Y45134D01*
X227803Y45155D01*
X227901Y45172D01*
X227999Y45185D01*
X228098Y45194D01*
X228198Y45200D01*
X228297Y45202D01*
X228946Y45202D01*
X228946Y45203D02*
X229059Y45201D01*
X229172Y45195D01*
X229285Y45185D01*
X229398Y45171D01*
X229510Y45154D01*
X229621Y45132D01*
X229731Y45107D01*
X229841Y45077D01*
X229949Y45044D01*
X230056Y45007D01*
X230162Y44967D01*
X230266Y44922D01*
X230369Y44874D01*
X230470Y44823D01*
X230569Y44768D01*
X230666Y44710D01*
X230761Y44648D01*
X230854Y44583D01*
X230944Y44515D01*
X231032Y44444D01*
X231118Y44369D01*
X231201Y44292D01*
X231281Y44212D01*
X231358Y44129D01*
X231433Y44043D01*
X231504Y43955D01*
X231572Y43865D01*
X231637Y43772D01*
X231699Y43677D01*
X231757Y43580D01*
X231812Y43481D01*
X231863Y43380D01*
X231911Y43277D01*
X231956Y43173D01*
X231996Y43067D01*
X232033Y42960D01*
X232066Y42852D01*
X232096Y42742D01*
X232121Y42632D01*
X232143Y42521D01*
X232160Y42409D01*
X232174Y42296D01*
X232184Y42183D01*
X232190Y42070D01*
X232192Y41957D01*
X232190Y41844D01*
X232184Y41731D01*
X232174Y41618D01*
X232160Y41505D01*
X232143Y41393D01*
X232121Y41282D01*
X232096Y41172D01*
X232066Y41062D01*
X232033Y40954D01*
X231996Y40847D01*
X231956Y40741D01*
X231911Y40637D01*
X231863Y40534D01*
X231812Y40433D01*
X231757Y40334D01*
X231699Y40237D01*
X231637Y40142D01*
X231572Y40049D01*
X231504Y39959D01*
X231433Y39871D01*
X231358Y39785D01*
X231281Y39702D01*
X231201Y39622D01*
X231118Y39545D01*
X231032Y39470D01*
X230944Y39399D01*
X230854Y39331D01*
X230761Y39266D01*
X230666Y39204D01*
X230569Y39146D01*
X230470Y39091D01*
X230369Y39040D01*
X230266Y38992D01*
X230162Y38947D01*
X230056Y38907D01*
X229949Y38870D01*
X229841Y38837D01*
X229731Y38807D01*
X229621Y38782D01*
X229510Y38760D01*
X229398Y38743D01*
X229285Y38729D01*
X229172Y38719D01*
X229059Y38713D01*
X228946Y38711D01*
X225701Y38711D01*
X225558Y38713D01*
X225415Y38719D01*
X225272Y38729D01*
X225130Y38743D01*
X224988Y38760D01*
X224846Y38782D01*
X224705Y38807D01*
X224565Y38837D01*
X224426Y38870D01*
X224288Y38907D01*
X224151Y38948D01*
X224015Y38992D01*
X223880Y39041D01*
X223747Y39093D01*
X223615Y39148D01*
X223485Y39208D01*
X223356Y39271D01*
X223229Y39337D01*
X223104Y39407D01*
X222982Y39480D01*
X222861Y39557D01*
X222742Y39637D01*
X222626Y39720D01*
X222511Y39806D01*
X222400Y39895D01*
X222290Y39988D01*
X222184Y40083D01*
X222080Y40182D01*
X221979Y40283D01*
X221880Y40387D01*
X221785Y40493D01*
X221692Y40603D01*
X221603Y40714D01*
X221517Y40829D01*
X221434Y40945D01*
X221354Y41064D01*
X221277Y41185D01*
X221204Y41308D01*
X221134Y41432D01*
X221068Y41559D01*
X221005Y41688D01*
X220945Y41818D01*
X220890Y41950D01*
X220838Y42083D01*
X220789Y42218D01*
X220745Y42354D01*
X220704Y42491D01*
X220667Y42629D01*
X220634Y42768D01*
X220604Y42908D01*
X220579Y43049D01*
X220557Y43191D01*
X220540Y43333D01*
X220526Y43475D01*
X220516Y43618D01*
X220510Y43761D01*
X220508Y43904D01*
X220508Y33445D02*
X232192Y33445D01*
X220508Y33445D02*
X220508Y30200D01*
X220510Y30113D01*
X220516Y30025D01*
X220526Y29939D01*
X220539Y29852D01*
X220557Y29767D01*
X220578Y29682D01*
X220603Y29598D01*
X220632Y29516D01*
X220665Y29435D01*
X220701Y29355D01*
X220740Y29277D01*
X220784Y29201D01*
X220830Y29127D01*
X220880Y29056D01*
X220933Y28986D01*
X220989Y28919D01*
X221048Y28855D01*
X221109Y28793D01*
X221174Y28734D01*
X221241Y28678D01*
X221311Y28625D01*
X221382Y28575D01*
X221456Y28529D01*
X221532Y28486D01*
X221610Y28446D01*
X221690Y28410D01*
X221771Y28377D01*
X221853Y28348D01*
X221937Y28323D01*
X222022Y28302D01*
X222107Y28284D01*
X222194Y28271D01*
X222280Y28261D01*
X222368Y28255D01*
X222455Y28253D01*
X222455Y28252D02*
X226350Y28252D01*
X226350Y28253D02*
X226437Y28255D01*
X226525Y28261D01*
X226611Y28271D01*
X226698Y28284D01*
X226783Y28302D01*
X226868Y28323D01*
X226952Y28348D01*
X227034Y28377D01*
X227115Y28410D01*
X227195Y28446D01*
X227273Y28485D01*
X227349Y28529D01*
X227423Y28575D01*
X227494Y28625D01*
X227564Y28678D01*
X227631Y28734D01*
X227696Y28793D01*
X227757Y28855D01*
X227816Y28919D01*
X227872Y28986D01*
X227925Y29056D01*
X227975Y29127D01*
X228021Y29201D01*
X228065Y29277D01*
X228104Y29355D01*
X228140Y29435D01*
X228173Y29516D01*
X228202Y29598D01*
X228227Y29682D01*
X228248Y29767D01*
X228266Y29852D01*
X228279Y29939D01*
X228289Y30026D01*
X228295Y30113D01*
X228297Y30200D01*
X228297Y33445D01*
D11*
X275000Y94450D02*
X300400Y94450D01*
X300400Y119850D01*
X275000Y119850D01*
X275000Y94450D01*
D12*
X287700Y126200D02*
X287700Y183350D01*
D11*
X300400Y94450D02*
X325800Y94450D01*
X325800Y119850D01*
X300400Y119850D01*
D12*
X313100Y126200D02*
X313100Y183350D01*
D13*
X287700Y122390D03*
X313100Y122390D03*
D14*
X287700Y89370D03*
X313100Y89370D03*
D11*
X19550Y59500D02*
X13200Y65850D01*
X13200Y78550D01*
X19550Y84900D01*
X32250Y84900D01*
X38600Y78550D01*
X38600Y65850D01*
X32250Y59500D01*
X13200Y27750D02*
X13200Y15050D01*
X13200Y27750D02*
X19550Y34100D01*
X32250Y34100D01*
X38600Y27750D01*
X19550Y34100D02*
X13200Y40450D01*
X13200Y53150D01*
X19550Y59500D01*
X32250Y59500D01*
X38600Y53150D01*
X38600Y40450D01*
X32250Y34100D01*
X32250Y8700D02*
X19550Y8700D01*
X13200Y15050D01*
X32250Y8700D02*
X38600Y15050D01*
X38600Y27750D01*
X13200Y91250D02*
X13200Y103950D01*
X19550Y110300D01*
X32250Y110300D01*
X38600Y103950D01*
X19550Y84900D02*
X13200Y91250D01*
X32250Y84900D02*
X38600Y91250D01*
X38600Y103950D01*
X74500Y94450D02*
X99900Y94450D01*
X99900Y119850D01*
X74500Y119850D01*
X74500Y94450D01*
D12*
X87200Y126200D02*
X87200Y183350D01*
D11*
X99900Y94450D02*
X125300Y94450D01*
X125300Y119850D01*
X99900Y119850D01*
D12*
X112600Y126200D02*
X112600Y183350D01*
D13*
X87200Y122390D03*
X112600Y122390D03*
D14*
X87200Y89370D03*
X112600Y89370D03*
D11*
X94250Y52600D02*
X81550Y52600D01*
X94250Y52600D02*
X100600Y46250D01*
X100600Y33550D01*
X94250Y27200D01*
X75200Y33550D02*
X75200Y46250D01*
X81550Y52600D01*
X75200Y33550D02*
X81550Y27200D01*
X94250Y27200D01*
X100600Y46250D02*
X106950Y52600D01*
X119650Y52600D01*
X126000Y46250D01*
X126000Y33550D01*
X119650Y27200D01*
X106950Y27200D01*
X100600Y33550D01*
X281050Y52600D02*
X293750Y52600D01*
X300100Y46250D01*
X300100Y33550D01*
X293750Y27200D01*
X274700Y33550D02*
X274700Y46250D01*
X281050Y52600D01*
X274700Y33550D02*
X281050Y27200D01*
X293750Y27200D01*
X300100Y46250D02*
X306450Y52600D01*
X319150Y52600D01*
X325500Y46250D01*
X325500Y33550D01*
X319150Y27200D01*
X306450Y27200D01*
X300100Y33550D01*
D15*
X198663Y17632D02*
X198663Y102468D01*
X159737Y16632D02*
X159756Y16519D01*
X159778Y16407D01*
X159805Y16296D01*
X159835Y16186D01*
X159870Y16077D01*
X159908Y15969D01*
X159949Y15862D01*
X159994Y15757D01*
X160043Y15654D01*
X160095Y15552D01*
X160151Y15452D01*
X160210Y15354D01*
X160272Y15259D01*
X160338Y15165D01*
X160407Y15074D01*
X160478Y14985D01*
X160553Y14898D01*
X160631Y14814D01*
X160711Y14733D01*
X160795Y14655D01*
X160881Y14579D01*
X160969Y14507D01*
X161060Y14438D01*
X161153Y14371D01*
X161248Y14308D01*
X161346Y14248D01*
X161445Y14192D01*
X161546Y14139D01*
X161650Y14090D01*
X161754Y14044D01*
X161860Y14001D01*
X161968Y13963D01*
X162077Y13928D01*
X162187Y13896D01*
X162298Y13869D01*
X162410Y13845D01*
X162522Y13825D01*
X162635Y13809D01*
X162749Y13797D01*
X162863Y13789D01*
X162977Y13785D01*
X163092Y13784D01*
X163206Y13788D01*
X163320Y13795D01*
X163434Y13806D01*
X163547Y13822D01*
X198663Y102468D02*
X198646Y102598D01*
X198625Y102727D01*
X198600Y102856D01*
X198572Y102984D01*
X198539Y103111D01*
X198503Y103237D01*
X198462Y103362D01*
X198418Y103485D01*
X198371Y103607D01*
X198319Y103728D01*
X198265Y103847D01*
X198206Y103964D01*
X198144Y104079D01*
X198079Y104193D01*
X198010Y104305D01*
X197937Y104414D01*
X197862Y104521D01*
X197783Y104626D01*
X197701Y104728D01*
X197616Y104828D01*
X197529Y104925D01*
X197438Y105020D01*
X197344Y105112D01*
X197248Y105201D01*
X197149Y105287D01*
X197048Y105369D01*
X196944Y105449D01*
X196837Y105526D01*
X196729Y105599D01*
X196618Y105669D01*
X196505Y105736D01*
X196390Y105799D01*
X196274Y105859D01*
X196155Y105915D01*
X196035Y105968D01*
X195914Y106017D01*
X195791Y106062D01*
X195666Y106104D01*
X195541Y106142D01*
X195414Y106175D01*
X195287Y106206D01*
X195158Y106232D01*
X195029Y106254D01*
X194899Y106273D01*
X194769Y106287D01*
X194638Y106298D01*
X194507Y106304D01*
X194376Y106307D01*
X194245Y106306D01*
X194114Y106300D01*
X193984Y106291D01*
X193853Y106278D01*
X198663Y17632D02*
X198661Y17510D01*
X198655Y17388D01*
X198645Y17266D01*
X198632Y17145D01*
X198614Y17024D01*
X198593Y16904D01*
X198568Y16784D01*
X198539Y16665D01*
X198506Y16548D01*
X198469Y16431D01*
X198429Y16316D01*
X198385Y16202D01*
X198337Y16090D01*
X198286Y15979D01*
X198231Y15870D01*
X198173Y15762D01*
X198111Y15657D01*
X198046Y15553D01*
X197978Y15452D01*
X197907Y15353D01*
X197832Y15256D01*
X197754Y15162D01*
X197674Y15070D01*
X197590Y14981D01*
X197504Y14895D01*
X197415Y14811D01*
X197323Y14731D01*
X197229Y14653D01*
X197132Y14578D01*
X197033Y14507D01*
X196932Y14439D01*
X196828Y14374D01*
X196723Y14312D01*
X196615Y14254D01*
X196506Y14199D01*
X196395Y14148D01*
X196283Y14100D01*
X196169Y14056D01*
X196054Y14016D01*
X195937Y13979D01*
X195820Y13946D01*
X195701Y13917D01*
X195581Y13892D01*
X195461Y13871D01*
X195340Y13853D01*
X195219Y13840D01*
X195097Y13830D01*
X194975Y13824D01*
X194853Y13822D01*
X159737Y102467D02*
X159722Y102581D01*
X159710Y102695D01*
X159703Y102809D01*
X159699Y102923D01*
X159700Y103037D01*
X159704Y103152D01*
X159712Y103266D01*
X159724Y103379D01*
X159740Y103492D01*
X159760Y103605D01*
X159784Y103717D01*
X159811Y103828D01*
X159842Y103938D01*
X159877Y104047D01*
X159916Y104154D01*
X159958Y104261D01*
X160004Y104365D01*
X160054Y104468D01*
X160107Y104570D01*
X160163Y104669D01*
X160223Y104767D01*
X160286Y104862D01*
X160352Y104955D01*
X160422Y105046D01*
X160494Y105134D01*
X160570Y105220D01*
X160648Y105303D01*
X160729Y105384D01*
X160813Y105462D01*
X160899Y105536D01*
X160988Y105608D01*
X161080Y105677D01*
X161173Y105743D01*
X161269Y105805D01*
X161367Y105864D01*
X161467Y105920D01*
X161569Y105972D01*
X161672Y106020D01*
X161777Y106066D01*
X161884Y106107D01*
X161992Y106145D01*
X162101Y106179D01*
X162211Y106209D01*
X162322Y106236D01*
X162434Y106259D01*
X162547Y106278D01*
X159737Y102468D02*
X159737Y16632D01*
X163547Y13822D02*
X194853Y13822D01*
X185296Y105770D02*
X185294Y105612D01*
X185288Y105453D01*
X185278Y105295D01*
X185264Y105138D01*
X185247Y104980D01*
X185225Y104824D01*
X185200Y104667D01*
X185170Y104512D01*
X185137Y104357D01*
X185100Y104203D01*
X185059Y104050D01*
X185014Y103898D01*
X184965Y103748D01*
X184913Y103598D01*
X184857Y103450D01*
X184797Y103303D01*
X184734Y103158D01*
X184667Y103015D01*
X184597Y102873D01*
X184523Y102733D01*
X184445Y102595D01*
X184364Y102459D01*
X184280Y102325D01*
X184193Y102193D01*
X184102Y102063D01*
X184008Y101936D01*
X183911Y101811D01*
X183810Y101688D01*
X183707Y101568D01*
X183601Y101451D01*
X183492Y101336D01*
X183380Y101224D01*
X183265Y101115D01*
X183148Y101009D01*
X183028Y100906D01*
X182905Y100805D01*
X182780Y100708D01*
X182653Y100614D01*
X182523Y100523D01*
X182391Y100436D01*
X182257Y100352D01*
X182121Y100271D01*
X181983Y100193D01*
X181843Y100119D01*
X181701Y100049D01*
X181558Y99982D01*
X181413Y99919D01*
X181266Y99859D01*
X181118Y99803D01*
X180968Y99751D01*
X180818Y99702D01*
X180666Y99657D01*
X180513Y99616D01*
X180359Y99579D01*
X180204Y99546D01*
X180049Y99516D01*
X179892Y99491D01*
X179736Y99469D01*
X179578Y99452D01*
X179421Y99438D01*
X179263Y99428D01*
X179104Y99422D01*
X178946Y99420D01*
X178788Y99422D01*
X178629Y99428D01*
X178471Y99438D01*
X178314Y99452D01*
X178156Y99469D01*
X178000Y99491D01*
X177843Y99516D01*
X177688Y99546D01*
X177533Y99579D01*
X177379Y99616D01*
X177226Y99657D01*
X177074Y99702D01*
X176924Y99751D01*
X176774Y99803D01*
X176626Y99859D01*
X176479Y99919D01*
X176334Y99982D01*
X176191Y100049D01*
X176049Y100119D01*
X175909Y100193D01*
X175771Y100271D01*
X175635Y100352D01*
X175501Y100436D01*
X175369Y100523D01*
X175239Y100614D01*
X175112Y100708D01*
X174987Y100805D01*
X174864Y100906D01*
X174744Y101009D01*
X174627Y101115D01*
X174512Y101224D01*
X174400Y101336D01*
X174291Y101451D01*
X174185Y101568D01*
X174082Y101688D01*
X173981Y101811D01*
X173884Y101936D01*
X173790Y102063D01*
X173699Y102193D01*
X173612Y102325D01*
X173528Y102459D01*
X173447Y102595D01*
X173369Y102733D01*
X173295Y102873D01*
X173225Y103015D01*
X173158Y103158D01*
X173095Y103303D01*
X173035Y103450D01*
X172979Y103598D01*
X172927Y103748D01*
X172878Y103898D01*
X172833Y104050D01*
X172792Y104203D01*
X172755Y104357D01*
X172722Y104512D01*
X172692Y104667D01*
X172667Y104824D01*
X172645Y104980D01*
X172628Y105138D01*
X172614Y105295D01*
X172604Y105453D01*
X172598Y105612D01*
X172596Y105770D01*
X185296Y106278D02*
X193726Y106278D01*
X172596Y106278D02*
X162547Y106278D01*
X152848Y109263D02*
X152850Y109363D01*
X152856Y109464D01*
X152866Y109563D01*
X152880Y109663D01*
X152897Y109762D01*
X152919Y109860D01*
X152945Y109957D01*
X152974Y110053D01*
X153007Y110147D01*
X153044Y110241D01*
X153084Y110333D01*
X153128Y110423D01*
X153176Y110511D01*
X153227Y110598D01*
X153281Y110682D01*
X153339Y110764D01*
X153400Y110844D01*
X153464Y110921D01*
X153531Y110996D01*
X153601Y111068D01*
X153674Y111137D01*
X153749Y111203D01*
X153827Y111267D01*
X153907Y111327D01*
X153990Y111384D01*
X154075Y111437D01*
X154162Y111487D01*
X154251Y111534D01*
X154341Y111577D01*
X154433Y111617D01*
X154527Y111653D01*
X154622Y111685D01*
X154718Y111713D01*
X154816Y111738D01*
X154914Y111758D01*
X155013Y111775D01*
X155113Y111788D01*
X155212Y111797D01*
X155313Y111802D01*
X155413Y111803D01*
X155513Y111800D01*
X155614Y111793D01*
X155713Y111782D01*
X155813Y111767D01*
X155911Y111749D01*
X156009Y111726D01*
X156106Y111699D01*
X156201Y111669D01*
X156296Y111635D01*
X156389Y111597D01*
X156480Y111556D01*
X156570Y111511D01*
X156658Y111463D01*
X156744Y111411D01*
X156828Y111356D01*
X156909Y111297D01*
X156988Y111235D01*
X157065Y111171D01*
X157139Y111103D01*
X157210Y111032D01*
X157279Y110959D01*
X157344Y110883D01*
X157407Y110804D01*
X157466Y110723D01*
X157522Y110640D01*
X157575Y110555D01*
X157624Y110467D01*
X157670Y110378D01*
X157712Y110287D01*
X157751Y110194D01*
X157786Y110100D01*
X157817Y110005D01*
X157845Y109908D01*
X157868Y109811D01*
X157888Y109712D01*
X157904Y109613D01*
X157916Y109514D01*
X157924Y109413D01*
X157928Y109313D01*
X157928Y109213D01*
X157924Y109113D01*
X157916Y109012D01*
X157904Y108913D01*
X157888Y108814D01*
X157868Y108715D01*
X157845Y108618D01*
X157817Y108521D01*
X157786Y108426D01*
X157751Y108332D01*
X157712Y108239D01*
X157670Y108148D01*
X157624Y108059D01*
X157575Y107971D01*
X157522Y107886D01*
X157466Y107803D01*
X157407Y107722D01*
X157344Y107643D01*
X157279Y107567D01*
X157210Y107494D01*
X157139Y107423D01*
X157065Y107355D01*
X156988Y107291D01*
X156909Y107229D01*
X156828Y107170D01*
X156744Y107115D01*
X156658Y107063D01*
X156570Y107015D01*
X156480Y106970D01*
X156389Y106929D01*
X156296Y106891D01*
X156201Y106857D01*
X156106Y106827D01*
X156009Y106800D01*
X155911Y106777D01*
X155813Y106759D01*
X155713Y106744D01*
X155614Y106733D01*
X155513Y106726D01*
X155413Y106723D01*
X155313Y106724D01*
X155212Y106729D01*
X155113Y106738D01*
X155013Y106751D01*
X154914Y106768D01*
X154816Y106788D01*
X154718Y106813D01*
X154622Y106841D01*
X154527Y106873D01*
X154433Y106909D01*
X154341Y106949D01*
X154251Y106992D01*
X154162Y107039D01*
X154075Y107089D01*
X153990Y107142D01*
X153907Y107199D01*
X153827Y107259D01*
X153749Y107323D01*
X153674Y107389D01*
X153601Y107458D01*
X153531Y107530D01*
X153464Y107605D01*
X153400Y107682D01*
X153339Y107762D01*
X153281Y107844D01*
X153227Y107928D01*
X153176Y108015D01*
X153128Y108103D01*
X153084Y108193D01*
X153044Y108285D01*
X153007Y108379D01*
X152974Y108473D01*
X152945Y108569D01*
X152919Y108666D01*
X152897Y108764D01*
X152880Y108863D01*
X152866Y108963D01*
X152856Y109062D01*
X152850Y109163D01*
X152848Y109263D01*
M02*
