G04 EAGLE Gerber RS-274X export*
G75*
%MOMM*%
%FSLAX34Y34*%
%LPD*%
%INSoldermask Top*%
%IPPOS*%
%AMOC8*
5,1,8,0,0,1.08239X$1,22.5*%
G01*
%ADD10C,1.727200*%
%ADD11R,1.403200X0.803200*%
%ADD12C,0.959600*%


D10*
X287700Y67780D02*
X287700Y83020D01*
X313100Y83020D02*
X313100Y67780D01*
X33520Y21400D02*
X18280Y21400D01*
X18280Y46800D02*
X33520Y46800D01*
X33520Y72200D02*
X18280Y72200D01*
X18280Y97600D02*
X33520Y97600D01*
X87200Y83020D02*
X87200Y67780D01*
X112600Y67780D02*
X112600Y83020D01*
X87900Y47520D02*
X87900Y32280D01*
X113300Y32280D02*
X113300Y47520D01*
X287400Y47520D02*
X287400Y32280D01*
X312800Y32280D02*
X312800Y47520D01*
X262220Y98600D02*
X246980Y98600D01*
X246980Y73200D02*
X262220Y73200D01*
X262220Y47800D02*
X246980Y47800D01*
X246980Y22400D02*
X262220Y22400D01*
D11*
X151200Y98150D03*
X151200Y85450D03*
X151200Y72750D03*
X151200Y60050D03*
X151200Y47350D03*
X151200Y34650D03*
X151200Y21950D03*
X207200Y21950D03*
X207200Y34650D03*
X207200Y47350D03*
X207200Y60050D03*
X207200Y72750D03*
X207200Y85450D03*
X207200Y98150D03*
D10*
X381700Y97120D02*
X381700Y81880D01*
X356300Y81880D02*
X356300Y97120D01*
X381700Y37120D02*
X381700Y21880D01*
X356300Y21880D02*
X356300Y37120D01*
D12*
X138684Y42672D03*
X96012Y97536D03*
X163068Y48768D03*
X169164Y73152D03*
X182880Y86868D03*
M02*
